<svg width="220" height="121" viewBox="0 0 220 121" fill="none" xmlns="http://www.w3.org/2000/svg">
<path d="M13.3516 52.25C14.6016 53.75 16.1224 55.2708 17.9141 56.8125C19.7057 58.3125 21.6224 59.6875 23.6641 60.9375C25.7057 62.1875 27.7891 63.2083 29.9141 64C32.0807 64.7917 34.1641 65.1875 36.1641 65.1875C38.7891 65.1875 40.9141 64.4792 42.5391 63.0625C44.1641 61.6042 44.9766 59.5625 44.9766 56.9375C44.9766 55.4792 44.5391 54.1875 43.6641 53.0625C42.8307 51.8958 41.7057 50.8333 40.2891 49.875C38.9141 48.875 37.3307 47.9167 35.5391 47C33.7891 46.0417 31.9766 45.0208 30.1016 43.9375C28.2266 42.8542 26.3932 41.6875 24.6016 40.4375C22.8516 39.1458 21.2682 37.6458 19.8516 35.9375C18.4766 34.2292 17.3516 32.2917 16.4766 30.125C15.6432 27.9167 15.2266 25.375 15.2266 22.5C15.2266 19.5417 15.9141 16.7083 17.2891 14C18.7057 11.2917 20.7266 8.89584 23.3516 6.8125C26.0182 4.72917 29.2682 3.08334 33.1016 1.875C36.9349 0.625003 41.2891 2.86102e-06 46.1641 2.86102e-06C47.1641 2.86102e-06 48.4349 0.0625023 49.9766 0.187501C51.5599 0.270836 53.2266 0.458337 54.9766 0.750002C56.7266 1 58.4974 1.375 60.2891 1.875C62.0807 2.33334 63.7474 2.9375 65.2891 3.6875L63.2266 23.3125C62.4349 22.6042 61.2474 21.7292 59.6641 20.6875C58.1224 19.6042 56.3724 18.5833 54.4141 17.625C52.4974 16.625 50.4557 15.7708 48.2891 15.0625C46.1224 14.3542 44.0599 14 42.1016 14C40.3516 14 38.9557 14.3542 37.9141 15.0625C36.9141 15.7708 36.4141 17.0417 36.4141 18.875C36.4141 20.2083 36.8516 21.3958 37.7266 22.4375C38.6432 23.4792 39.8307 24.4583 41.2891 25.375C42.7474 26.2917 44.3932 27.2083 46.2266 28.125C48.1016 29 49.9974 29.9792 51.9141 31.0625C53.8724 32.1042 55.7682 33.2917 57.6016 34.625C59.4766 35.9583 61.1432 37.5417 62.6016 39.375C64.0599 41.1667 65.2266 43.2708 66.1016 45.6875C67.0182 48.0625 67.4766 50.8125 67.4766 53.9375C67.4766 58.3958 66.6224 62.25 64.9141 65.5C63.2474 68.75 60.9557 71.4375 58.0391 73.5625C55.1641 75.6458 51.7474 77.1875 47.7891 78.1875C43.8724 79.2292 39.6641 79.75 35.1641 79.75C33.1224 79.75 30.9349 79.5833 28.6016 79.25C26.2682 78.9167 23.9974 78.4583 21.7891 77.875C19.5807 77.25 17.5391 76.5 15.6641 75.625C13.8307 74.75 12.4141 73.7708 11.4141 72.6875L13.3516 52.25ZM101.098 25.625L99.7852 39.0625H92.2852L90.1602 59.5C90.1602 59.5833 90.1393 59.6875 90.0977 59.8125C90.0977 59.8958 90.0977 60 90.0977 60.125C90.0977 60.5833 90.1393 61.0625 90.2227 61.5625C90.3477 62.0208 90.5352 62.4583 90.7852 62.875C91.0768 63.25 91.431 63.5625 91.8477 63.8125C92.306 64.0625 92.8685 64.1875 93.5352 64.1875C94.3685 64.1875 95.181 64.0208 95.9727 63.6875C96.806 63.3542 97.556 62.9167 98.2227 62.375C98.931 61.8333 99.5143 61.25 99.9727 60.625C100.473 59.9583 100.827 59.3125 101.035 58.6875L105.91 64.4375C105.285 66.2292 104.264 67.9792 102.848 69.6875C101.473 71.3958 99.8477 72.9167 97.9727 74.25C96.0977 75.5833 94.0352 76.6667 91.7852 77.5C89.5352 78.2917 87.2643 78.6875 84.9727 78.6875C82.2227 78.6875 79.9518 78.2292 78.1602 77.3125C76.3685 76.3542 74.931 75.1042 73.8477 73.5625C72.806 72.0208 72.056 70.25 71.5977 68.25C71.181 66.25 70.9727 64.2083 70.9727 62.125C70.9727 61.0833 71.0143 60.1458 71.0977 59.3125C71.181 58.4375 71.2852 57.5625 71.4102 56.6875L76.4102 7.875L95.5977 6.25L93.5977 25.625H101.098ZM160.238 58.6875C161.03 59.6458 161.822 60.6042 162.613 61.5625C163.447 62.5208 164.259 63.4792 165.051 64.4375C164.426 66.2708 163.405 68.0417 161.988 69.75C160.613 71.4583 158.988 73 157.113 74.375C155.238 75.7083 153.197 76.7917 150.988 77.625C148.822 78.4167 146.655 78.8125 144.488 78.8125C137.53 78.8125 133.28 76.0625 131.738 70.5625C131.405 71.1458 131.072 71.6875 130.738 72.1875C130.405 72.6875 130.009 73.1667 129.551 73.625C129.217 73.9583 128.717 74.4375 128.051 75.0625C127.384 75.6458 126.551 76.2292 125.551 76.8125C124.551 77.3958 123.363 77.8958 121.988 78.3125C120.655 78.7292 119.092 78.9375 117.301 78.9375C114.467 78.9375 112.03 78.4375 109.988 77.4375C107.947 76.4375 106.259 75.0833 104.926 73.375C103.634 71.625 102.676 69.5833 102.051 67.25C101.426 64.9167 101.113 62.3958 101.113 59.6875C101.113 59.0208 101.134 58.0208 101.176 56.6875C101.217 55.3125 101.342 53.75 101.551 52C101.759 50.25 102.051 48.375 102.426 46.375C102.801 44.375 103.322 42.375 103.988 40.375C104.655 38.375 105.488 36.4583 106.488 34.625C107.488 32.7917 108.676 31.1667 110.051 29.75C111.467 28.3333 113.113 27.2083 114.988 26.375C116.863 25.5417 119.009 25.125 121.426 25.125C122.676 25.125 123.863 25.2708 124.988 25.5625C126.113 25.8125 127.155 26.1458 128.113 26.5625C129.072 26.9375 129.947 27.3542 130.738 27.8125C131.53 28.2708 132.217 28.7083 132.801 29.125L133.363 24.25L152.676 25.125L149.363 57.875C149.28 58.5833 149.238 59.3333 149.238 60.125C149.28 60.9167 149.405 61.6458 149.613 62.3125C149.822 62.9375 150.176 63.4583 150.676 63.875C151.176 64.2917 151.863 64.5 152.738 64.5C153.572 64.5 154.384 64.3125 155.176 63.9375C156.009 63.5625 156.759 63.1042 157.426 62.5625C158.134 61.9792 158.717 61.3542 159.176 60.6875C159.676 59.9792 160.03 59.3125 160.238 58.6875ZM131.551 39.8125C131.384 39.4792 131.092 39.0625 130.676 38.5625C130.259 38.0625 129.592 37.8125 128.676 37.8125C127.551 37.8125 126.467 38.2708 125.426 39.1875C124.426 40.1042 123.53 41.375 122.738 43C121.988 44.625 121.384 46.5833 120.926 48.875C120.467 51.1667 120.238 53.6875 120.238 56.4375C120.238 58.2292 120.363 59.6458 120.613 60.6875C120.863 61.6875 121.176 62.4375 121.551 62.9375C121.926 63.4375 122.322 63.75 122.738 63.875C123.155 63.9583 123.53 64 123.863 64C124.863 64 125.926 63.6875 127.051 63.0625C128.217 62.4375 129.072 61.375 129.613 59.875L131.551 39.8125ZM190.258 25.625L188.945 39.0625H181.445L179.32 59.5C179.32 59.5833 179.299 59.6875 179.258 59.8125C179.258 59.8958 179.258 60 179.258 60.125C179.258 60.5833 179.299 61.0625 179.383 61.5625C179.508 62.0208 179.695 62.4583 179.945 62.875C180.237 63.25 180.591 63.5625 181.008 63.8125C181.466 64.0625 182.029 64.1875 182.695 64.1875C183.529 64.1875 184.341 64.0208 185.133 63.6875C185.966 63.3542 186.716 62.9167 187.383 62.375C188.091 61.8333 188.674 61.25 189.133 60.625C189.633 59.9583 189.987 59.3125 190.195 58.6875L195.07 64.4375C194.445 66.2292 193.424 67.9792 192.008 69.6875C190.633 71.3958 189.008 72.9167 187.133 74.25C185.258 75.5833 183.195 76.6667 180.945 77.5C178.695 78.2917 176.424 78.6875 174.133 78.6875C171.383 78.6875 169.112 78.2292 167.32 77.3125C165.529 76.3542 164.091 75.1042 163.008 73.5625C161.966 72.0208 161.216 70.25 160.758 68.25C160.341 66.25 160.133 64.2083 160.133 62.125C160.133 61.0833 160.174 60.1458 160.258 59.3125C160.341 58.4375 160.445 57.5625 160.57 56.6875L165.57 7.875L184.758 6.25L182.758 25.625H190.258Z" fill="#B91C1C"/>
<path d="M195.06 64.47L190.2 58.72C198.01 38.52 220 42 220 67C220 110.603 165 109 100 109C68.9336 109 27.6667 114.333 10.5 121C13.3 111 8.5 94 0.5 87C49.7 82.2 87.1992 86.2358 100 87C208.697 93.4894 210.1 97.8 212.5 67C214.613 39.8856 198.995 54.02 195.06 64.47Z" fill="#B91C1C"/>
<path d="M42.5361 95.964C42.4521 96.024 42.3681 96.096 42.2841 96.18C42.2121 96.252 42.1521 96.336 42.1041 96.432C42.0561 96.516 42.0201 96.606 41.9961 96.702C41.9841 96.798 42.0021 96.888 42.0501 96.972C42.1341 97.116 42.2961 97.23 42.5361 97.314C42.7881 97.398 43.0101 97.458 43.2021 97.494L47.0001 98.07C47.5761 98.13 48.0861 98.256 48.5301 98.448C48.7221 98.52 48.9081 98.616 49.0881 98.736C49.2801 98.844 49.4481 98.976 49.5921 99.132C49.7361 99.288 49.8561 99.468 49.9521 99.672C50.0481 99.876 50.0961 100.11 50.0961 100.374C50.1081 100.626 50.0661 100.908 49.9701 101.22C49.8861 101.52 49.7361 101.856 49.5201 102.228C49.1121 102.888 48.6381 103.416 48.0981 103.812C47.5701 104.208 47.0001 104.514 46.3881 104.73C45.7881 104.946 45.1521 105.09 44.4801 105.162C43.8081 105.234 43.1301 105.27 42.4461 105.27C41.6181 105.27 40.8261 105.216 40.0701 105.108C39.3261 105 38.6781 104.778 38.1261 104.442C37.5741 104.094 37.1541 103.602 36.8661 102.966C36.5781 102.318 36.4821 101.454 36.5781 100.374H40.5561C40.5801 100.794 40.6641 101.136 40.8081 101.4C40.9641 101.664 41.1561 101.874 41.3841 102.03C41.6121 102.186 41.8701 102.294 42.1581 102.354C42.4461 102.402 42.7401 102.426 43.0401 102.426C43.3281 102.426 43.6281 102.402 43.9401 102.354C44.2641 102.294 44.5701 102.192 44.8581 102.048C44.9661 102 45.0741 101.934 45.1821 101.85C45.2901 101.754 45.3801 101.652 45.4521 101.544C45.5361 101.436 45.5901 101.322 45.6141 101.202C45.6381 101.082 45.6201 100.968 45.5601 100.86C45.5481 100.836 45.5421 100.824 45.5421 100.824C45.4461 100.692 45.3201 100.596 45.1641 100.536C45.0081 100.476 44.8521 100.428 44.6961 100.392C44.6361 100.38 44.4981 100.356 44.2821 100.32C44.0781 100.284 43.8321 100.248 43.5441 100.212C43.2681 100.164 42.9681 100.116 42.6441 100.068C42.3321 100.02 42.0321 99.978 41.7441 99.942C41.4561 99.894 41.2041 99.858 40.9881 99.834C40.7841 99.798 40.6521 99.774 40.5921 99.762C40.0641 99.69 39.5841 99.552 39.1521 99.348C38.7801 99.18 38.4381 98.94 38.1261 98.628C37.8141 98.304 37.6341 97.878 37.5861 97.35C37.5621 97.098 37.5801 96.828 37.6401 96.54C37.7121 96.252 37.8501 95.934 38.0541 95.586C38.4741 94.926 38.9481 94.398 39.4761 94.002C40.0041 93.606 40.5741 93.3 41.1861 93.084C41.7981 92.868 42.4341 92.73 43.0941 92.67C43.7661 92.598 44.4501 92.562 45.1461 92.562C45.9741 92.562 46.7601 92.616 47.5041 92.724C48.2601 92.82 48.9081 93.042 49.4481 93.39C50.0001 93.726 50.4201 94.212 50.7081 94.848C51.0081 95.484 51.1101 96.342 51.0141 97.422H47.0181C46.9941 97.002 46.9041 96.666 46.7481 96.414C46.6041 96.15 46.4181 95.946 46.1901 95.802C45.9621 95.646 45.7041 95.544 45.4161 95.496C45.1281 95.436 44.8341 95.406 44.5341 95.406C44.0781 95.406 43.6821 95.46 43.3461 95.568C43.0101 95.676 42.7401 95.808 42.5361 95.964ZM60.4978 92.832L57.8158 105H54.0178L56.5918 92.832H60.4978ZM65.1238 102.156L64.5118 105H57.8158L59.3458 102.156H65.1238ZM85.0892 92.832L83.8112 98.916C83.5232 100.272 83.0972 101.352 82.5332 102.156C81.9812 102.96 81.3332 103.572 80.5892 103.992C79.8572 104.412 79.0532 104.688 78.1772 104.82C77.3132 104.94 76.4252 105 75.5132 105C74.6012 105 73.7372 104.94 72.9212 104.82C72.1052 104.688 71.4152 104.412 70.8512 103.992C70.2992 103.572 69.9152 102.96 69.6992 102.156C69.4832 101.352 69.5192 100.272 69.8072 98.916L71.1032 92.832H75.0092L73.7312 98.916C73.5752 99.636 73.5392 100.212 73.6232 100.644C73.7192 101.064 73.8872 101.388 74.1272 101.616C74.3672 101.844 74.6672 101.994 75.0272 102.066C75.3872 102.126 75.7532 102.156 76.1252 102.156C76.4972 102.156 76.8752 102.126 77.2592 102.066C77.6432 101.994 78.0032 101.844 78.3392 101.616C78.6752 101.388 78.9752 101.064 79.2392 100.644C79.5152 100.212 79.7312 99.636 79.8872 98.916L81.1832 92.832H85.0892ZM96.0316 95.406C95.6596 95.406 95.2816 95.448 94.8976 95.532C94.5136 95.616 94.1476 95.784 93.7996 96.036C93.4516 96.276 93.1396 96.63 92.8636 97.098C92.5876 97.554 92.3656 98.16 92.1976 98.916C92.0416 99.672 92.0056 100.278 92.0896 100.734C92.1736 101.19 92.3356 101.544 92.5756 101.796C92.8156 102.048 93.1096 102.216 93.4576 102.3C93.8056 102.384 94.1656 102.426 94.5376 102.426C95.0176 102.426 95.4976 102.354 95.9776 102.21C96.4696 102.066 96.9136 101.766 97.3096 101.31L95.2036 100.806L95.6536 98.628H102.296C102.26 98.82 102.224 99.012 102.188 99.204C102.152 99.372 102.11 99.558 102.062 99.762C102.014 99.954 101.96 100.146 101.9 100.338C101.54 101.418 101.078 102.288 100.514 102.948C99.9496 103.596 99.3196 104.094 98.6236 104.442C97.9276 104.778 97.1776 105 96.3736 105.108C95.5816 105.216 94.7716 105.27 93.9436 105.27C93.3316 105.27 92.7376 105.24 92.1616 105.18C91.5976 105.132 91.0696 105.03 90.5776 104.874C90.0976 104.718 89.6656 104.496 89.2816 104.208C88.9096 103.92 88.6156 103.542 88.3996 103.074C88.1836 102.606 88.0576 102.03 88.0216 101.346C87.9976 100.662 88.0876 99.852 88.2916 98.916C88.5916 97.5 89.0236 96.372 89.5876 95.532C90.1516 94.692 90.7996 94.056 91.5316 93.624C92.2756 93.18 93.0856 92.892 93.9616 92.76C94.8376 92.628 95.7316 92.562 96.6436 92.562C97.4716 92.562 98.2636 92.616 99.0196 92.724C99.7756 92.82 100.424 93.042 100.964 93.39C101.516 93.726 101.936 94.224 102.224 94.884C102.512 95.532 102.608 96.402 102.512 97.494H98.5336C98.5216 97.05 98.4376 96.696 98.2816 96.432C98.1376 96.156 97.9456 95.946 97.7056 95.802C97.4776 95.646 97.2196 95.544 96.9316 95.496C96.6436 95.436 96.3436 95.406 96.0316 95.406ZM114.292 95.406C113.92 95.406 113.542 95.448 113.158 95.532C112.774 95.616 112.408 95.784 112.06 96.036C111.712 96.276 111.4 96.63 111.124 97.098C110.848 97.554 110.626 98.16 110.458 98.916C110.302 99.672 110.266 100.278 110.35 100.734C110.434 101.19 110.596 101.544 110.836 101.796C111.076 102.048 111.37 102.216 111.718 102.3C112.066 102.384 112.426 102.426 112.798 102.426C113.278 102.426 113.758 102.354 114.238 102.21C114.73 102.066 115.174 101.766 115.57 101.31L113.464 100.806L113.914 98.628H120.556C120.52 98.82 120.484 99.012 120.448 99.204C120.412 99.372 120.37 99.558 120.322 99.762C120.274 99.954 120.22 100.146 120.16 100.338C119.8 101.418 119.338 102.288 118.774 102.948C118.21 103.596 117.58 104.094 116.884 104.442C116.188 104.778 115.438 105 114.634 105.108C113.842 105.216 113.032 105.27 112.204 105.27C111.592 105.27 110.998 105.24 110.422 105.18C109.858 105.132 109.33 105.03 108.838 104.874C108.358 104.718 107.926 104.496 107.542 104.208C107.17 103.92 106.876 103.542 106.66 103.074C106.444 102.606 106.318 102.03 106.282 101.346C106.258 100.662 106.348 99.852 106.552 98.916C106.852 97.5 107.284 96.372 107.848 95.532C108.412 94.692 109.06 94.056 109.792 93.624C110.536 93.18 111.346 92.892 112.222 92.76C113.098 92.628 113.992 92.562 114.904 92.562C115.732 92.562 116.524 92.616 117.28 92.724C118.036 92.82 118.684 93.042 119.224 93.39C119.776 93.726 120.196 94.224 120.484 94.884C120.772 95.532 120.868 96.402 120.772 97.494H116.794C116.782 97.05 116.698 96.696 116.542 96.432C116.398 96.156 116.206 95.946 115.966 95.802C115.738 95.646 115.48 95.544 115.192 95.496C114.904 95.436 114.604 95.406 114.292 95.406ZM129.798 95.676L128.808 100.338L130.428 97.494H137.358L136.746 100.338H128.808L128.412 102.156H137.088L136.494 105H123.912L126.486 92.832H139.086L138.474 95.676H129.798ZM154.18 92.976C154.744 93.168 155.164 93.522 155.44 94.038C155.716 94.542 155.788 95.13 155.656 95.802L155.314 97.368C155.242 97.692 155.128 98.004 154.972 98.304C154.816 98.592 154.624 98.856 154.396 99.096C154.168 99.336 153.91 99.552 153.622 99.744C153.346 99.924 153.052 100.062 152.74 100.158C152.692 100.182 152.656 100.194 152.632 100.194L153.748 105H149.518L148.6 100.338H146.242L147.862 97.494H150.688C150.82 97.482 150.94 97.446 151.048 97.386C151.144 97.326 151.24 97.236 151.336 97.116C151.444 96.984 151.522 96.804 151.57 96.576C151.63 96.348 151.636 96.174 151.588 96.054C151.54 95.934 151.474 95.844 151.39 95.784C151.306 95.724 151.198 95.688 151.066 95.676H147.232L146.836 97.494H146.854H146.836L146.242 100.338L145.252 105H141.346L143.92 92.832H153.316C153.46 92.832 153.604 92.844 153.748 92.868C153.904 92.88 154.048 92.916 154.18 92.976Z" fill="white"/>
</svg>
